<?xml version="1.0" encoding="utf-8"?>
<!-- Generator: Adobe Illustrator 16.0.0, SVG Export Plug-In . SVG Version: 6.00 Build 0)  -->
<!DOCTYPE svg PUBLIC "-//W3C//DTD SVG 1.1//EN" "http://www.w3.org/Graphics/SVG/1.1/DTD/svg11.dtd">
<svg version="1.1" id="Layer_1" xmlns="http://www.w3.org/2000/svg" xmlns:xlink="http://www.w3.org/1999/xlink" x="0px" y="0px"
	 width="88.45px" height="102.34px" viewBox="0 0 88.45 102.34" enable-background="new 0 0 88.45 102.34" xml:space="preserve">
<path fill-rule="evenodd" clip-rule="evenodd" fill="#2B2B2B" d="M52.878,75.279c6.295-6.328,12.584-12.664,18.891-18.982
	c1.293-1.295,2.539-2.678,4.002-3.752c3.374-2.477,7.879-2.076,10.438,0.752c2.681,2.963,2.705,7.143-0.355,10.354
	c-5.171,5.422-10.549,10.645-15.846,15.947c-6.592,6.598-13.141,13.24-19.804,19.764c-4.436,4.344-8.206,4.334-12.513,0.049
	C26.117,87.902,14.579,76.359,3.062,64.795c-4.037-4.053-4.396-8.518-1.096-11.826c3.424-3.432,7.586-3.004,11.831,1.037
	c7.346,6.99,14.764,13.906,22.073,20.779c0.043-0.521,0.253-1.885,0.255-3.248c0.021-19.986-0.001-39.973,0.04-59.957
	c0.004-1.977,0.045-4.045,0.609-5.906c1.08-3.563,3.911-6.086,7.429-5.217c2.614,0.646,5.162,3.135,6.835,5.455
	c1.077,1.492,0.662,4.166,0.666,6.313c0.038,20.805,0.023,41.609,0.023,62.416C52.11,74.854,52.495,75.066,52.878,75.279z"/>
</svg>
