<?xml version="1.0" encoding="utf-8"?>
<!-- Generator: Adobe Illustrator 16.0.0, SVG Export Plug-In . SVG Version: 6.00 Build 0)  -->
<!DOCTYPE svg PUBLIC "-//W3C//DTD SVG 1.1//EN" "http://www.w3.org/Graphics/SVG/1.1/DTD/svg11.dtd">
<svg version="1.1" id="Layer_1" xmlns="http://www.w3.org/2000/svg" xmlns:xlink="http://www.w3.org/1999/xlink" x="0px" y="0px"
	 width="174.15px" height="417.38px" viewBox="0 0 174.15 417.38" enable-background="new 0 0 174.15 417.38" xml:space="preserve">
<g>
	<path fill-rule="evenodd" clip-rule="evenodd" fill="#2B2B2B" d="M-0.083,143.479c-0.004-21.491-0.06-42.982,0.009-64.474
		C0.063,35.506,34.251,1.325,77.672,1.29c13.463-0.011,26.925-0.653,40.207,2.926c27.946,7.53,51.796,33.688,54.854,62.418
		c1.544,14.508,1.132,29.248,1.198,43.886c0.146,32.485,0.029,64.973,0.033,97.46c0.005,43.619-34.438,78.164-77.964,78.08
		c-12.963-0.023-25.935,0.662-38.731-2.748c-32.897-8.766-56.99-39.248-57.309-73.359C-0.247,187.796-0.079,165.637-0.083,143.479z
		 M14.821,143.814c0,11.158-0.011,22.317,0.003,33.477s-0.1,22.32,0.108,33.475c0.458,24.605,16.521,46.861,39.445,55.707
		c13.697,5.285,27.877,4.219,41.957,3.984c35.855-0.6,61.958-26.652,62.26-62.525c0.359-42.801,0.326-85.608,0.027-128.41
		c-0.207-29.881-18.869-54.585-46.855-60.634c-11.692-2.526-24.189-2.481-36.247-1.949c-36.326,1.604-60.604,27.553-60.688,63.918
		C14.782,101.842,14.822,122.828,14.821,143.814z"/>
	<path fill-rule="evenodd" clip-rule="evenodd" fill="#2B2B2B" d="M94.708,95.187c0,8.333,0.051,16.667-0.018,24.999
		c-0.049,5.914-3.207,9.689-7.848,9.625c-4.631-0.064-7.65-3.815-7.667-9.802c-0.046-16.832-0.043-33.664-0.01-50.496
		c0.012-6.013,2.955-9.691,7.646-9.79c4.974-0.104,7.87,3.485,7.905,9.966c0.045,8.499,0.011,16.999,0.011,25.498
		C94.722,95.187,94.715,95.187,94.708,95.187z"/>
</g>
</svg>
